<svg xmlns="http://www.w3.org/2000/svg" enable-background="new 0 0 28 28" viewBox="0 0 28 28"><path fill="#ff7c66" d="m9.315 24.209-6.722-7.255c-1.341-1.584-.953-4.116.866-5.656l7.982-6.756c1.819-1.54 5.397-2.364 6.738-.78l6.642 6.816c1.341 1.584.275 4.69-1.544 6.23l-8.241 7.481c-1.819 1.54-4.38 1.504-5.721-.08z"/><path d="m14 26c-.1 0-.2-.03-.286-.089l-11.5-8c-.138-.097-.219-.257-.214-.426s.096-.324.24-.412l11.5-7c.159-.097.36-.097.52 0l11.5 7c.145.088.235.243.24.412s-.076.329-.214.426l-11.5 8c-.086.059-.186.089-.286.089zm-10.584-8.472 10.584 7.363 10.584-7.363-10.584-6.443z"/><path d="m14 18c-.1 0-.2-.03-.286-.089l-11.5-8c-.138-.097-.219-.257-.214-.426s.096-.324.24-.412l11.5-7c.159-.097.36-.097.52 0l11.5 7c.145.088.235.243.24.412s-.076.329-.214.426l-11.5 8c-.086.059-.186.089-.286.089zm-10.584-8.472 10.584 7.363 10.584-7.363-10.584-6.443z"/><path d="M2.5 18c-.276 0-.5-.224-.5-.5v-8c0-.276.224-.5.5-.5s.5.224.5.5v8c0 .276-.224.5-.5.5zM14 26c-.276 0-.5-.224-.5-.5v-8c0-.276.224-.5.5-.5s.5.224.5.5v8c0 .276-.224.5-.5.5zM14 11c-.276 0-.5-.224-.5-.5v-8c0-.276.224-.5.5-.5s.5.224.5.5v8c0 .276-.224.5-.5.5z"/></svg>