<svg xmlns="http://www.w3.org/2000/svg" enable-background="new 0 0 28 28" viewBox="0 0 28 28"><path fill="#ffe577" d="m9.324 6.673c2.57 2.89 7.631 11.101 2.183 15.456-3.454 2.761-8.746 1.297-9.352-4.236s1.051-6.714 1.091-8.481c.101-4.427 3.216-5.957 6.078-2.739z"/><path d="m13.538 23.5c-3.728 0-8.611-.117-10.513-3.776-1.433-2.785-1.559-7.107.904-10.121-.206-.698-.31-1.428-.31-2.174 0-1.116.272-1.707.753-2.654.086-.169.258-.275.446-.275 2.232 0 3.701.45 5.329 1.649 2.572-.562 5.415-.574 7.872-.039 1.589-1.17 3.045-1.61 5.281-1.61.188 0 .359.105.445.271.482.939.754 1.525.754 2.657 0 .73-.104 1.452-.31 2.148 1.201 1.486 1.81 3.323 1.81 5.464 0 3.586-1.006 5.837-3.169 7.083-1.981 1.142-4.852 1.376-8.552 1.376h-.355c-.127.001-.256.001-.385.001zm-8.413-17.997c-.35.705-.506 1.131-.506 1.925 0 .736.115 1.452.343 2.127.057.169.02.355-.098.49-2.357 2.684-2.263 6.669-.951 9.219.978 1.882 3.006 2.67 5.224 3-1-.26-1.931-.688-2.646-1.394-.865-.855-1.304-2.021-1.304-3.463 0-2.173 1.381-4.372 4.021-4.372.819 0 1.531.104 2.284.215 1.278.187 2.601.381 4.646.072l.569-.08c.706-.102 1.437-.207 2.189-.207 2.64 0 4.021 2.199 4.021 4.372 0 3.034-1.941 4.314-3.948 4.854 4.203-.567 6.031-2.337 6.031-7.221-.001-1.999-.589-3.689-1.748-5.025-.116-.134-.152-.319-.096-.487.228-.676.343-1.383.343-2.1 0-.806-.156-1.23-.504-1.925-1.923.039-3.143.458-4.555 1.543-.119.091-.274.123-.419.09-2.438-.573-5.308-.559-7.875.038-.146.034-.298 0-.417-.09-1.453-1.111-2.686-1.541-4.604-1.581zm9.415 16.136c.264 0 .499.004.697.017 4.611-.001 6.683-1.311 6.683-4.249 0-1.624-.945-3.372-3.021-3.372-.681 0-1.344.096-2.046.197l-.571.08c-2.182.331-3.644.117-4.932-.073-.716-.105-1.393-.204-2.139-.204-2.076 0-3.021 1.748-3.021 3.372 0 1.182.329 2.083 1.007 2.752 1.564 1.545 4.645 1.506 6.688 1.485.231-.002.451-.005.655-.005z"/><path d="M18.461 20.49c-1.558 0-2.258-1.803-2.258-3.083s.701-3.083 2.258-3.083 2.258 1.803 2.258 3.083-.7 3.083-2.258 3.083zm0-5.166c-.878 0-1.258 1.379-1.258 2.083s.38 2.083 1.258 2.083 1.258-1.379 1.258-2.083-.38-2.083-1.258-2.083zM9.659 20.49c-1.558 0-2.258-1.803-2.258-3.083s.701-3.083 2.258-3.083 2.258 1.803 2.258 3.083-.701 3.083-2.258 3.083zm0-5.166c-.878 0-1.258 1.379-1.258 2.083s.38 2.083 1.258 2.083 1.258-1.379 1.258-2.083-.38-2.083-1.258-2.083z"/></svg>